<?xml version="1.0" encoding="UTF-8"?>
<svg version="1.1" xmlns="http://www.w3.org/2000/svg" width="164" height="40">
<path d="M0 0 C54.12 0 108.24 0 164 0 C164 13.2 164 26.4 164 40 C109.88 40 55.76 40 0 40 C0 26.8 0 13.6 0 0 Z " fill="#15181B" transform="translate(0,0)"/>
<path d="M0 0 C0.95003906 -0.00708984 1.90007813 -0.01417969 2.87890625 -0.02148438 C9.7696201 0.0415109 9.7696201 0.0415109 12.76953125 1.66796875 C14.98426623 3.93269775 15.01440122 5.0518276 15.03125 8.18359375 C15.03640625 9.10333984 15.0415625 10.02308594 15.046875 10.97070312 C15.03140625 11.92912109 15.0159375 12.88753906 15 13.875 C15.01546875 14.82955078 15.0309375 15.78410156 15.046875 16.76757812 C15.02504351 20.66722726 14.94962112 23.57913241 13.125 27.0625 C8.88006917 29.2860352 4.71735189 29.05440637 0 29 C-0.95003906 29.02384766 -1.90007813 29.04769531 -2.87890625 29.07226562 C-9.65937564 29.05796084 -9.65937564 29.05796084 -13.125 26.5 C-15.04644701 22.22041347 -15.08482455 18.51560967 -15 13.875 C-15.01546875 13.02486328 -15.0309375 12.17472656 -15.046875 11.29882812 C-15.02399533 7.65238003 -14.8641252 5.11609696 -13.125 1.875 C-8.89787793 -0.43985256 -4.73452383 -0.09957275 0 0 Z " fill="#F4F9F9" transform="translate(39.5,5.5625)"/>
<path d="M0 0 C1.32 0 2.64 0 4 0 C4.33 2.97 4.66 5.94 5 9 C5.66 9 6.32 9 7 9 C7.33 6.03 7.66 3.06 8 0 C9.32 0 10.64 0 12 0 C12.66 1.98 13.32 3.96 14 6 C14.99 4.02 15.98 2.04 17 0 C18.32 0.33 19.64 0.66 21 1 C19.68 5.62 18.36 10.24 17 15 C15.35 14.67 13.7 14.34 12 14 C11.34 12.02 10.68 10.04 10 8 C9.34 10.31 8.68 12.62 8 15 C6.68 15 5.36 15 4 15 C3.32779649 13.06441401 2.66241923 11.12645628 2 9.1875 C1.62875 8.10855469 1.2575 7.02960937 0.875 5.91796875 C0 3 0 3 0 0 Z " fill="#ECECED" transform="translate(61,13)"/>
<path d="M0 0 C0.99 0.33 1.98 0.66 3 1 C2.88637738 2.4800841 2.75877092 3.95910074 2.625 5.4375 C2.55539063 6.26121094 2.48578125 7.08492187 2.4140625 7.93359375 C2.27742188 8.61550781 2.14078125 9.29742187 2 10 C1.01 10.495 1.01 10.495 0 11 C0 11.66 0 12.32 0 13 C0.763125 13.12375 1.52625 13.2475 2.3125 13.375 C5 14 5 14 8 16 C8 16.99 8 17.98 8 19 C7.360625 18.835 6.72125 18.67 6.0625 18.5 C4.19173179 17.96073333 4.19173179 17.96073333 3 18 C3 19.65 3 21.3 3 23 C1.68 23 0.36 23 -1 23 C-1 21.02 -1 19.04 -1 17 C-1.33 17.66 -1.66 18.32 -2 19 C-3.32 19 -4.64 19 -6 19 C-5.67 17.68 -5.34 16.36 -5 15 C-7.97 14.505 -7.97 14.505 -11 14 C-10.67 12.68 -10.34 11.36 -10 10 C-8.02 10 -6.04 10 -4 10 C-4.66 9.34 -5.32 8.68 -6 8 C-6 7.01 -6 6.02 -6 5 C-4.68 5.33 -3.36 5.66 -2 6 C-1.34 4.02 -0.68 2.04 0 0 Z " fill="#C6F4F5" transform="translate(39,8)"/>
<path d="M0 0 C0 0.99 0 1.98 0 3 C-2.31 3.33 -4.62 3.66 -7 4 C-7.74957157 7.47147842 -7.74957157 7.47147842 -8 11 C-5.69 11 -3.38 11 -1 11 C-1 12.32 -1 13.64 -1 15 C-5.3322929 15.4247346 -7.34962488 15.47048413 -10.9375 12.875 C-13 10 -13 10 -13.6875 7 C-12.90167962 3.57096559 -11.61728363 1.9466338 -8.80078125 -0.1640625 C-5.7429158 -1.58354885 -3.14778014 -0.81842284 0 0 Z " fill="#ECEDED" transform="translate(105,13)"/>
<path d="M0 0 C2.72869407 0.03287583 5.2966618 0.56397771 8 1 C8 3.97 8 6.94 8 10 C1.1640625 10.29296875 1.1640625 10.29296875 -1 10 C-3 7 -3 7 -2.75 4.4375 C-2 2 -2 2 0 0 Z " fill="#BEBFC0" transform="translate(109,18)"/>
<path d="M0 0 C2.5 0.25 2.5 0.25 4.5 2.25 C4.6875 5.8125 4.6875 5.8125 4.5 9.25 C3.5 10.25 3.5 10.25 0.0625 10.5 C-1.113125 10.4175 -2.28875 10.335 -3.5 10.25 C-5.5 7.25 -5.5 7.25 -5.25 4.6875 C-4.24098289 1.40819438 -3.4742892 0.34742892 0 0 Z " fill="#E5E5E6" transform="translate(133.5,17.75)"/>
<path d="M0 0 C0.59732819 2.76264289 1 5.16032769 1 8 C-1.76250036 9.38125018 -3.94731099 9.19079306 -7 9 C-9 7 -9 7 -9.3125 4.5625 C-9 2 -9 2 -7.875 0.125 C-5.07848948 -1.55290631 -3.06309468 -0.74875648 0 0 Z " fill="#DADBDB" transform="translate(90,19)"/>
<path d="M0 0 C1.32 0 2.64 0 4 0 C4.33 2.97 4.66 5.94 5 9 C6.32 8.34 7.64 7.68 9 7 C8.67 9.64 8.34 12.28 8 15 C6.68 15 5.36 15 4 15 C3.32779649 13.06441401 2.66241923 11.12645628 2 9.1875 C1.62875 8.10855469 1.2575 7.02960937 0.875 5.91796875 C0 3 0 3 0 0 Z " fill="#F6F7F7" transform="translate(61,13)"/>
<path d="M0 0 C2.97 0 5.94 0 9 0 C8.67 0.99 8.34 1.98 8 3 C7.01 3.33 6.02 3.66 5 4 C4.67 5.98 4.34 7.96 4 10 C2.68 10 1.36 10 0 10 C0 6.7 0 3.4 0 0 Z " fill="#D3D3D4" transform="translate(119,18)"/>
<path d="M0 0 C0.33 1.32 0.66 2.64 1 4 C-5.625 4.25 -5.625 4.25 -9 2 C-5.86501708 0.14223235 -3.62528568 -0.20140476 0 0 Z " fill="#6DE4E8" transform="translate(51,18)"/>
<path d="M0 0 C0.66 0 1.32 0 2 0 C2 2.97 2 5.94 2 9 C0.35 8.67 -1.3 8.34 -3 8 C-2.01 5.36 -1.02 2.72 0 0 Z " fill="#FEFEFE" transform="translate(115,19)"/>
<path d="M0 0 C2.3431213 0.25561323 4.67843403 0.59270772 7 1 C7.33 1.66 7.66 2.32 8 3 C5.04335481 4.4783226 2.25770263 4.06032783 -1 4 C-0.67 2.68 -0.34 1.36 0 0 Z " fill="#67E2E7" transform="translate(29,18)"/>
<path d="M0 0 C0.99 0.33 1.98 0.66 3 1 C3.125 6.75 3.125 6.75 2 9 C1.34 9 0.68 9 0 9 C-0.87890625 2.84765625 -0.87890625 2.84765625 -1 1 C-0.67 0.67 -0.34 0.34 0 0 Z " fill="#69E3E7" transform="translate(39,8)"/>
<path d="M0 0 C0.66 0 1.32 0 2 0 C2.33 2.31 2.66 4.62 3 7 C1.68 7 0.36 7 -1 7 C-0.67 4.69 -0.34 2.38 0 0 Z " fill="#5FE1E6" transform="translate(39,24)"/>
<path d="M0 0 C0.99 0 1.98 0 3 0 C3 1.32 3 2.64 3 4 C1.02 4.66 -0.96 5.32 -3 6 C-2.01 4.02 -1.02 2.04 0 0 Z " fill="#75E5E9" transform="translate(44,13)"/>
<path d="M0 0 C1.2065625 0.0309375 1.2065625 0.0309375 2.4375 0.0625 C2.1075 1.3825 1.7775 2.7025 1.4375 4.0625 C0.261875 4.0315625 0.261875 4.0315625 -0.9375 4 C-3.54364961 3.87565937 -3.54364961 3.87565937 -5.5625 5.0625 C-3.15007962 0.07683121 -3.15007962 0.07683121 0 0 Z " fill="#B5B6B7" transform="translate(133.5625,17.9375)"/>
<path d="M0 0 C2.475 0.99 2.475 0.99 5 2 C5 2.99 5 3.98 5 5 C3.68 4.67 2.36 4.34 1 4 C0.67 2.68 0.34 1.36 0 0 Z " fill="#69E3E8" transform="translate(42,22)"/>
<path d="M0 0 C0.33 0.99 0.66 1.98 1 3 C0.67 3.66 0.34 4.32 0 5 C-1.32 5 -2.64 5 -4 5 C-3.6875 3.0625 -3.6875 3.0625 -3 1 C-2.01 0.67 -1.02 0.34 0 0 Z " fill="#6BE3E8" transform="translate(37,22)"/>
<path d="M0 0 C1.32 0.33 2.64 0.66 4 1 C4.33 2.32 4.66 3.64 5 5 C3.68 4.67 2.36 4.34 1 4 C0.67 2.68 0.34 1.36 0 0 Z " fill="#6CE3E8" transform="translate(33,13)"/>
</svg>
